<svg width="32" height="32" viewBox="0 0 32 32" fill="none" xmlns="http://www.w3.org/2000/svg">
<path d="M29.996 4L30 4.004V27.996L29.996 28H2.004L2 27.996V4.004L2.004 4H29.996V4ZM30 2H2C0.9 2 0 2.9 0 4V28C0 29.1 0.9 30 2 30H30C31.1 30 32 29.1 32 28V4C32 2.9 31.1 2 30 2Z" fill="#BCBFC1"/>
<path d="M26 9.0017C25.9997 9.79753 25.6833 10.5607 25.1203 11.1232C24.5573 11.6858 23.7939 12.0017 22.998 12.0014C22.2021 12.0011 21.4389 11.6847 20.8763 11.1218C20.3137 10.5589 19.9977 9.79554 19.998 8.9997C19.9983 8.20387 20.3147 7.44073 20.8777 6.87818C21.4407 6.31562 22.2041 5.99973 23 6C23.7959 6.00027 24.5591 6.31666 25.1217 6.87959C25.6843 7.44252 26.0003 8.20586 26 9.0017V9.0017ZM28 26H4V22.0004L11 10.0016L19 20.0006H21L28 14.0012V26Z" fill="#BCBFC1"/>
</svg>
