<svg width="101" height="30" viewBox="0 0 101 30" fill="none" xmlns="http://www.w3.org/2000/svg">
<g clip-path="url(#clip0_1_369)">
<path d="M22.8296 27.2983C23.1132 27.1886 23.34 27.024 23.34 26.8046C23.34 25.7074 21.8656 24.9943 21.8656 19.6732V9.08573C21.8656 3.38058 19.2002 0.253723 12.1114 0.253723C7.74476 0.253723 2.13047 1.5703 2.13047 2.83201C2.13047 3.05144 2.18718 3.27087 2.3006 3.4903L3.4348 6.83658C3.49151 7.05601 3.71835 7.38515 4.0019 7.38515C4.73913 7.38515 7.85818 5.73944 11.0339 5.73944C14.6067 5.73944 15.0604 7.3303 15.0604 9.79887V11.4994C10.5803 11.4994 0.259033 11.4994 0.259033 20.7703C0.259033 25.9269 3.54822 29.2183 8.76554 29.2183C13.0188 29.2183 15.0037 27.024 16.1379 25.9269C16.4214 27.2983 17.2721 29.2183 17.7824 29.2183C18.0093 29.2183 18.2928 29.0537 18.5197 28.9989L22.8296 27.2983ZM15.0604 22.032C14.3798 22.6903 12.9054 24.1166 10.8071 24.1166C8.65212 24.1166 7.06424 22.5257 7.06424 20.3863C7.06424 15.5589 13.6426 15.9977 15.0604 15.9977V22.032Z" fill="white"/>
<path d="M48.8281 23.6777C48.8848 23.568 49.0549 23.3486 49.0549 23.0743C49.0549 22.9097 49.0549 22.5257 47.9774 22.5257H35.0475L47.864 6.01372V1.73487C47.864 1.40572 47.3536 1.1863 46.8999 1.1863H28.9228C28.299 1.1863 28.1289 1.40572 28.1289 1.9543V6.23315C28.1289 6.61715 28.2423 6.9463 28.5259 6.9463H39.9813L26.938 23.6229V27.7372C26.938 28.0663 27.1648 28.2857 27.5051 28.2857H46.3895C46.6164 28.2857 47.0134 28.0114 47.1835 27.5726L48.8281 23.6777ZM64.4109 23.7326C60.4412 23.7326 59.7607 19.8377 59.7607 14.736C59.7607 9.6343 60.4979 5.73944 64.4109 5.73944C68.3239 5.73944 69.0612 9.6343 69.0612 14.736C69.0612 19.8926 68.3806 23.7326 64.4109 23.7326ZM76.717 14.736C76.717 5.90401 72.0101 0.253723 64.4109 0.253723C56.7551 0.253723 52.1049 5.90401 52.1049 14.736C52.1049 23.568 56.7551 29.2183 64.4109 29.2183C72.0668 29.2183 76.717 23.568 76.717 14.736ZM90.3022 9.19544C91.0394 8.42744 92.8541 6.5623 94.6122 6.5623C95.9165 6.5623 96.9373 7.16572 97.2775 7.16572C97.5044 7.16572 97.6745 6.83658 97.7312 6.67201L99.4892 2.06401C99.5459 1.9543 99.6026 1.73487 99.6026 1.51544C99.6026 0.802294 97.9581 0.253723 96.3135 0.253723C92.4572 0.253723 90.3589 3.32573 89.2814 4.58744C88.9979 2.7223 87.8637 0.253723 87.1831 0.253723C86.9563 0.253723 86.6727 0.418295 86.4459 0.473152L82.1359 2.17372C81.8524 2.28344 81.6256 2.44801 81.6256 2.66744C81.6256 3.92915 83.1 4.91658 83.1 10.9509V27.5177C83.1 28.1212 83.2134 28.2857 83.894 28.2857H89.5082C90.1888 28.2857 90.3022 28.1212 90.3022 27.5177V9.19544Z" fill="white"/>
</g>
<defs>
<clipPath id="clip0_1_369">
<rect width="100.129" height="30" fill="white" transform="translate(0.0463867)"/>
</clipPath>
</defs>
</svg>
